<svg width="5" height="8" viewBox="0 0 5 8" fill="none" xmlns="http://www.w3.org/2000/svg">
<path d="M4.14647 5.1465L3 6.29297V0.500015C3 0.22364 2.77636 0 2.49999 0C2.22361 0 1.99997 0.22364 1.99997 0.500015V6.29297L0.853509 5.1465C0.658181 4.95117 0.341776 4.95117 0.146496 5.1465C-0.0488319 5.34183 -0.0488319 5.65823 0.146496 5.85352L2.1459 7.85292C2.19216 7.89933 2.24757 7.93612 2.30911 7.96158C2.37019 7.98684 2.43497 8.00002 2.50004 8.00002C2.5651 8.00002 2.62988 7.98684 2.69096 7.96158C2.7525 7.93612 2.80791 7.89933 2.85417 7.85292L4.85357 5.85352C5.0489 5.65819 5.0489 5.34178 4.85357 5.1465C4.6582 4.95117 4.3418 4.95117 4.14647 5.1465Z" fill="#AAAAAA"/>
</svg>
