<svg width="24" height="24" viewBox="0 0 24 24" fill="none" xmlns="http://www.w3.org/2000/svg">
<g clip-path="url(#clip0)">
<path d="M15.3354 0.129655C15.1449 -0.0432183 14.8549 -0.0432183 14.6645 0.129655C14.4469 0.325872 9.46661 4.87767 7.15387 10.1533C6.90459 10.0657 6.61762 10.0002 6.24661 10.0002C5.37113 10.0002 4.9014 10.3268 4.52397 10.5895C4.1944 10.819 3.93415 11.0001 3.37212 11.0001C2.81108 11.0001 2.55083 10.819 2.22173 10.59C1.84476 10.3273 1.37503 10.0002 0.500072 10.0002C0.223699 10.0002 6.10352e-05 10.2238 6.10352e-05 10.5002C6.10352e-05 10.7766 0.223699 11.0002 0.500072 11.0002C1.06111 11.0002 1.32136 11.1814 1.65047 11.4103C2.02743 11.673 2.49716 12.0002 3.37212 12.0002C4.2476 12.0002 4.7178 11.673 5.09523 11.4103C5.42481 11.1814 5.68505 11.0002 6.24661 11.0002C6.8091 11.0002 7.06987 11.1814 7.39991 11.4108C7.77735 11.6735 8.24754 12.0002 9.12354 12.0002C9.99901 12.0002 10.4692 11.6735 10.8472 11.4108C11.1767 11.1813 11.4375 11.0002 12 11.0002C12.2764 11.0002 12.5 10.7766 12.5 10.5002C12.5 10.2238 12.2764 10.0002 12 10.0002C11.124 10.0002 10.6538 10.3268 10.2759 10.5895C9.94632 10.819 9.68556 11.0001 9.12358 11.0001C8.59821 11.0001 8.33501 10.8399 8.03412 10.632C9.91478 6.28855 13.8307 2.31335 15 1.18724C16.5571 2.68769 22.9999 9.24333 22.9999 15.0001C22.9999 19.4112 19.4111 23 15 23C13.0089 23 11.1249 22.2584 9.66662 20.9489C10.2076 20.8487 10.557 20.6125 10.8472 20.4107C11.1768 20.1812 11.4375 20.0001 12 20.0001C12.2764 20.0001 12.5 19.7764 12.5 19.5C12.5 19.2237 12.2764 19 12 19C11.1241 19 10.6538 19.3267 10.2759 19.5894C9.94637 19.8189 9.68561 20 9.12363 20C8.56113 20 8.30037 19.8188 7.9708 19.5894C7.59285 19.3267 7.12265 19 6.2467 19C5.37123 19 4.9015 19.3267 4.52406 19.5894C4.19449 19.8189 3.93424 20 3.37222 20C2.81117 20 2.55093 19.8188 2.22182 19.5899C1.84486 19.3272 1.37513 19 0.500166 19C0.223793 19 0.000154784 19.2237 0.000154784 19.5C0.000154784 19.7764 0.223793 20.0001 0.500166 20.0001C1.06121 20.0001 1.32145 20.1812 1.65056 20.4102C2.02753 20.6729 2.49726 21 3.37222 21C4.24769 21 4.71789 20.6729 5.09532 20.4102C5.4249 20.1812 5.68515 20.0001 6.2467 20.0001C6.8092 20.0001 7.06996 20.1812 7.40001 20.4107C7.60367 20.5524 7.84128 20.7086 8.14817 20.8262C9.86378 22.8416 12.3507 24 15 24C19.9624 24 23.9999 19.9625 23.9999 15.0001C23.9999 8.04559 15.6889 0.44948 15.3354 0.129655Z" fill="#AAAAAA"/>
<path d="M0.500072 17.0001C1.06111 17.0001 1.32136 17.1813 1.65047 17.4102C2.02743 17.6729 2.49716 18.0001 3.37212 18.0001C3.64849 18.0001 3.87213 17.7764 3.87213 17.5C3.87213 17.2237 3.64849 17 3.37212 17C2.81108 17 2.55083 16.8189 2.22173 16.5899C1.84476 16.3272 1.37503 16.0001 0.500072 16.0001C0.223699 16.0001 6.10352e-05 16.2237 6.10352e-05 16.5001C6.10352e-05 16.7764 0.223699 17.0001 0.500072 17.0001Z" fill="#AAAAAA"/>
<path d="M6.24659 16.0001C5.97022 16.0001 5.74658 16.2237 5.74658 16.5001C5.74658 16.7765 5.97022 17.0001 6.24659 17.0001C6.80909 17.0001 7.06985 17.1813 7.39943 17.4108C7.77737 17.6734 8.24757 18.0001 9.12352 18.0001C9.99899 18.0001 10.4692 17.6734 10.8471 17.4108C11.1767 17.1813 11.4375 17.0001 12 17.0001C12.5717 17.0001 12.8627 17.1862 13.2304 17.4215C13.6547 17.6925 14.1357 18.0002 14.9999 18.0002C15.2763 18.0002 15.5 17.7765 15.5 17.5001C15.5 17.2238 15.2763 17.0001 14.9999 17.0001C14.4282 17.0001 14.1372 16.8141 13.7695 16.5787C13.3452 16.3077 12.8642 16.0001 12 16.0001C11.124 16.0001 10.6538 16.3268 10.2759 16.5895C9.94631 16.819 9.68554 17.0001 9.12357 17.0001C8.56107 17.0001 8.30031 16.8189 7.97026 16.5895C7.59278 16.3267 7.12258 16.0001 6.24659 16.0001Z" fill="#AAAAAA"/>
<path d="M6.24661 13.0001C5.37113 13.0001 4.9014 13.3268 4.52397 13.5895C4.1944 13.819 3.93415 14.0001 3.37212 14.0001C2.81108 14.0001 2.55083 13.8189 2.22173 13.59C1.84476 13.3273 1.37503 13.0001 0.500072 13.0001C0.223699 13.0001 6.10352e-05 13.2238 6.10352e-05 13.5001C6.10352e-05 13.7765 0.223699 14.0002 0.500072 14.0002C1.06111 14.0002 1.32136 14.1813 1.65047 14.4103C2.02743 14.673 2.49716 15.0001 3.37212 15.0001C4.2476 15.0001 4.7178 14.673 5.09523 14.4103C5.42481 14.1813 5.68505 14.0002 6.24661 14.0002C6.52298 14.0002 6.74662 13.7765 6.74662 13.5001C6.74662 13.2237 6.52298 13.0001 6.24661 13.0001Z" fill="#AAAAAA"/>
<path d="M10.8472 14.4107C11.1768 14.1812 11.4375 14.0001 12 14.0001C12.5611 14.0001 12.8213 14.1813 13.1504 14.4103C13.5274 14.6729 13.9971 15.0001 14.8721 15.0001C15.7475 15.0001 16.2177 14.6729 16.5952 14.4103C16.9247 14.1813 17.185 14.0001 17.7465 14.0001C18.0229 14.0001 18.2466 13.7765 18.2466 13.5001C18.2466 13.2237 18.0229 13.0001 17.7465 13.0001C16.8711 13.0001 16.4013 13.3268 16.0239 13.5894C15.6943 13.8189 15.4341 14.0001 14.8721 14.0001C14.311 14.0001 14.0508 13.8189 13.7217 13.5899C13.3447 13.3272 12.875 13.0001 12 13.0001C11.1241 13.0001 10.6538 13.3268 10.2759 13.5894C9.94635 13.8189 9.68558 14.0001 9.12361 14.0001C8.84723 14.0001 8.6236 14.2237 8.6236 14.5001C8.6236 14.7764 8.84723 15.0001 9.12361 15.0001C9.99903 15.0001 10.4692 14.6734 10.8472 14.4107Z" fill="#AAAAAA"/>
</g>
<defs>
<clipPath id="clip0">
<rect width="24" height="24" fill="white"/>
</clipPath>
</defs>
</svg>
